<svg xmlns="http://www.w3.org/2000/svg" viewBox="0 0 1440 320"><path fill="#151515" fill-opacity="1" d="M0,160L12.6,176C25.3,192,51,224,76,250.7C101.1,277,126,299,152,261.3C176.8,224,202,128,227,112C252.6,96,278,160,303,181.3C328.4,203,354,181,379,181.3C404.2,181,429,203,455,197.3C480,192,505,160,531,138.7C555.8,117,581,107,606,122.7C631.6,139,657,181,682,186.7C707.4,192,733,160,758,165.3C783.2,171,808,213,834,229.3C858.9,245,884,235,909,240C934.7,245,960,267,985,245.3C1010.5,224,1036,160,1061,128C1086.3,96,1112,96,1137,106.7C1162.1,117,1187,139,1213,160C1237.9,181,1263,203,1288,224C1313.7,245,1339,267,1364,282.7C1389.5,299,1415,309,1427,314.7L1440,320L1440,320L1427.4,320C1414.7,320,1389,320,1364,320C1338.9,320,1314,320,1288,320C1263.2,320,1238,320,1213,320C1187.4,320,1162,320,1137,320C1111.6,320,1086,320,1061,320C1035.8,320,1011,320,985,320C960,320,935,320,909,320C884.2,320,859,320,834,320C808.4,320,783,320,758,320C732.6,320,707,320,682,320C656.8,320,632,320,606,320C581.1,320,556,320,531,320C505.3,320,480,320,455,320C429.5,320,404,320,379,320C353.7,320,328,320,303,320C277.9,320,253,320,227,320C202.1,320,177,320,152,320C126.3,320,101,320,76,320C50.5,320,25,320,13,320L0,320Z"></path></svg>