<svg id="Layer_1" data-name="Layer 1" xmlns="http://www.w3.org/2000/svg" viewBox="0 0 38.84 38.84"><defs><style>.cls-1{fill:#fff;}.cls-2{fill:#161616;fill-rule:evenodd;}</style></defs><rect class="cls-1" width="38.84" height="38.84" rx="5"/><path id="Fill-12" class="cls-2" d="M36.14,11.49h0a1.34,1.34,0,0,0-1.27-.76H32.64a1.48,1.48,0,0,0-1.39.73L28,16.28l2.89,4L35.89,13a1.38,1.38,0,0,0,.25-1.51" transform="translate(-5.58 -5.58)"/><path id="Fill-14" class="cls-2" d="M18.74,11.41h0a1.64,1.64,0,0,0-1.39-.67H15.17a1.37,1.37,0,0,0-1.26.71A1.45,1.45,0,0,0,14.06,13l8.07,11.19L12.85,37.08a1.42,1.42,0,0,0-.12,1.49,1.37,1.37,0,0,0,1.25.7h2.23a1.48,1.48,0,0,0,1.32-.77L27.92,24.19Z" transform="translate(-5.58 -5.58)"/><path id="Fill-16" class="cls-2" d="M37.25,37.19l-6.47-8.88-2.85,3.92,5.12,6.84.13.06a1.69,1.69,0,0,0,.65.14H36a1.41,1.41,0,0,0,1.22-.64,1.45,1.45,0,0,0,0-1.44" transform="translate(-5.58 -5.58)"/></svg>