<svg width="400" height="300" viewBox="0 0 400 300" fill="none" xmlns="http://www.w3.org/2000/svg">
    <mask id="mask0_602_180" style="mask-type:luminance" maskUnits="userSpaceOnUse" x="0" y="0" width="400" height="300">
    <rect width="400" height="300" fill="white"/>
    </mask>
    <g mask="url(#mask0_602_180)">
    <path d="M234.365 75.3035C233.159 74.3991 231.644 73.9091 230.087 73.8168L216.65 73.0218C210.954 72.6849 206.676 77.6957 208.416 82.6637L212.717 94.9405L212.753 95.7064L212.903 95.471L214.151 99.0351C214.151 99.0351 222.805 102.586 233.665 90.8834C241.357 82.594 237.355 77.5441 234.365 75.3035Z" fill="#4B4D5C" stroke="#190000" stroke-width="1.1" stroke-linecap="round" stroke-linejoin="round"/>
    <path d="M215.393 131.12L235.515 155.511C237.712 158.174 241.058 158.814 243.621 157.062L266.153 141.661C266.153 141.661 274.141 139.865 271.855 135.802C271.855 135.802 273.597 132.74 269.964 131.254C269.964 131.254 270.136 126.496 266.153 127.91C266.153 127.91 264.987 126.274 263.439 128.965C262.82 130.041 262.455 131.307 262.333 132.632L262.253 133.492L243.35 143.857L230.388 125.325L215.393 131.12Z" fill="#FACCC4"/>
    <mask id="mask1_602_180" style="mask-type:luminance" maskUnits="userSpaceOnUse" x="215" y="125" width="58" height="34">
    <path fill-rule="evenodd" clip-rule="evenodd" d="M215.393 131.12L235.515 155.511C237.712 158.174 241.058 158.814 243.621 157.062L266.153 141.661C266.153 141.661 274.141 139.865 271.855 135.802C271.855 135.802 273.597 132.74 269.964 131.254C269.964 131.254 270.136 126.496 266.153 127.91C266.153 127.91 264.987 126.274 263.439 128.965C262.82 130.041 262.455 131.307 262.333 132.632L262.253 133.492L243.35 143.857L230.388 125.325L215.393 131.12Z" fill="white"/>
    </mask>
    <g mask="url(#mask1_602_180)">
    <path d="M237.058 134.645C243.911 149.012 222.415 155.501 223.403 161.735C224.391 167.969 219.173 149.14 219.173 149.14L225.75 137.18" fill="#ED707B"/>
    </g>
    <path fill-rule="evenodd" clip-rule="evenodd" d="M215.393 131.12L235.515 155.511C237.712 158.174 241.058 158.814 243.621 157.062L266.153 141.661C266.153 141.661 274.141 139.865 271.855 135.802C271.855 135.802 273.597 132.74 269.964 131.254C269.964 131.254 270.136 126.496 266.153 127.91C266.153 127.91 264.987 126.274 263.439 128.965C262.82 130.041 262.455 131.307 262.333 132.632L262.253 133.492L243.35 143.857L230.388 125.325L215.393 131.12Z" stroke="#190000" stroke-width="1.1" stroke-linecap="round" stroke-linejoin="round"/>
    <path d="M225.323 151.304C225.323 151.304 240.234 144.2 237.788 135.905L226.32 117.54L206.451 125.583L225.323 151.304Z" fill="#516DDB"/>
    <mask id="mask2_602_180" style="mask-type:luminance" maskUnits="userSpaceOnUse" x="206" y="117" width="33" height="35">
    <path fill-rule="evenodd" clip-rule="evenodd" d="M225.323 151.304C225.323 151.304 240.234 144.2 237.788 135.905L226.32 117.54L206.451 125.583L225.323 151.304Z" fill="white"/>
    </mask>
    <g mask="url(#mask2_602_180)">
    <path d="M220.164 125.325C215.978 138.567 223.703 143.742 225.323 151.304C226.943 158.866 202.783 143.574 202.783 143.574L204.585 130.6L220.77 122.12" fill="#3152BA"/>
    <path d="M216.758 149.736C233.981 147.738 236.84 131.842 236.84 131.842L239.672 134.422L238.771 145.231" fill="#399FE8"/>
    <path d="M216.758 149.736C233.981 147.738 236.84 131.842 236.84 131.842L239.672 134.422L238.771 145.231" stroke="#190000" stroke-width="1.1" stroke-linecap="round" stroke-linejoin="round"/>
    </g>
    <path fill-rule="evenodd" clip-rule="evenodd" d="M225.323 151.304C225.323 151.304 240.234 144.2 237.788 135.905L226.32 117.54L206.451 125.583L225.323 151.304Z" stroke="#190000" stroke-width="1.1" stroke-linecap="round" stroke-linejoin="round"/>
    <path d="M111.069 170.463C110.485 170.138 92.3043 163.614 92.3043 163.614L86.2788 173.815L90.1278 175.428L107.06 182.28L111.069 170.463Z" fill="#FACCC4"/>
    <mask id="mask3_602_180" style="mask-type:luminance" maskUnits="userSpaceOnUse" x="86" y="163" width="26" height="20">
    <path fill-rule="evenodd" clip-rule="evenodd" d="M111.069 170.463C110.485 170.138 92.3043 163.614 92.3043 163.614L86.2788 173.815L90.1278 175.428L107.06 182.28L111.069 170.463Z" fill="white"/>
    </mask>
    <g mask="url(#mask3_602_180)">
    <path d="M108.172 166.676C99.0105 165.583 104.385 174.456 92.4448 178.67C80.5049 182.885 97.3604 182.28 97.3604 182.28L98.6738 181.601L102.33 172.357" fill="#ED707B"/>
    </g>
    <path fill-rule="evenodd" clip-rule="evenodd" d="M111.069 170.463C110.485 170.138 92.3043 163.614 92.3043 163.614L86.2788 173.815L90.1278 175.428L107.06 182.28L111.069 170.463Z" stroke="#190000" stroke-width="1.1" stroke-linecap="round" stroke-linejoin="round"/>
    <path d="M71.2 195.676C78.9398 197.324 85.3618 176.511 91.1621 176.04C91.1621 176.04 94.3266 166.485 97.7154 165.366L92.4655 162.247C89.9039 160.726 86.6599 161.863 85.3424 164.745L71.2 195.676Z" fill="#4B4D5C" stroke="#190000" stroke-width="1.1" stroke-linecap="round" stroke-linejoin="round"/>
    <path d="M103.997 167.355C100.903 167.355 96.7406 184.695 96.7406 184.695L137.269 206.229C141.386 208.417 146.259 207.913 149.937 204.92L202.031 162.524L177.371 139.398L140.12 181.722C140.12 181.722 107.09 167.355 103.997 167.355Z" fill="#FBD164"/>
    <mask id="mask4_602_180" style="mask-type:luminance" maskUnits="userSpaceOnUse" x="96" y="139" width="107" height="69">
    <path fill-rule="evenodd" clip-rule="evenodd" d="M103.997 167.355C100.903 167.355 96.7406 184.695 96.7406 184.695L137.269 206.229C141.386 208.417 146.259 207.913 149.937 204.92L202.031 162.524L177.371 139.398L140.12 181.722C140.12 181.722 107.09 167.355 103.997 167.355Z" fill="white"/>
    </mask>
    <g mask="url(#mask4_602_180)">
    <path d="M101.67 190.545C102.957 183.336 107.208 166.858 111.069 168.532" stroke="#F9B564" stroke-width="1.1" stroke-linecap="round" stroke-linejoin="round"/>
    <path d="M107.076 174.453C107.076 174.453 139.517 187.455 140.547 187.713C141.577 187.97 173.117 153.856 173.117 153.856" stroke="#F9B564" stroke-width="1.1" stroke-linecap="round" stroke-linejoin="round"/>
    <ellipse cx="146.97" cy="210.092" rx="14.79" ry="8.6453" fill="#D3575E" stroke="#190000" stroke-width="1.1" stroke-linecap="round" stroke-linejoin="round"/>
    <path d="M169.812 157.42C195.842 179.771 167.241 177.778 164.374 194.714C161.507 211.651 226.691 163.931 226.691 163.931L206.451 153.965" fill="#F9B564"/>
    </g>
    <path fill-rule="evenodd" clip-rule="evenodd" d="M103.997 167.355C100.903 167.355 96.7406 184.695 96.7406 184.695L137.269 206.229C141.386 208.417 146.259 207.913 149.937 204.92L202.031 162.524L177.371 139.398L140.12 181.722C140.12 181.722 107.09 167.355 103.997 167.355Z" stroke="#190000" stroke-width="1.1" stroke-linecap="round" stroke-linejoin="round"/>
    <path d="M272.508 183.29H127.991C123.917 183.29 120.615 186.592 120.615 190.666V256.813C120.615 260.886 123.917 264.189 127.991 264.189H222.463C226.27 268.996 230.614 274.472 233.771 278.45C235.23 280.288 238.171 279.233 238.171 276.886V264.189H272.508C276.581 264.189 279.884 260.886 279.884 256.813V190.666C279.884 186.593 276.581 183.29 272.508 183.29Z" fill="#399FE8"/>
    <mask id="mask5_602_180" style="mask-type:luminance" maskUnits="userSpaceOnUse" x="120" y="183" width="160" height="97">
    <path fill-rule="evenodd" clip-rule="evenodd" d="M272.508 183.29H127.991C123.917 183.29 120.615 186.592 120.615 190.666V256.813C120.615 260.886 123.917 264.189 127.991 264.189H222.463C226.27 268.996 230.614 274.472 233.771 278.45C235.23 280.288 238.171 279.233 238.171 276.886V264.189H272.508C276.581 264.189 279.884 260.886 279.884 256.813V190.666C279.884 186.593 276.581 183.29 272.508 183.29Z" fill="white"/>
    </mask>
    <g mask="url(#mask5_602_180)">
    <path d="M279.884 173.407C271.424 282.316 96.0885 263.006 96.0885 263.006L207.002 317.847L315.451 291.585L291.506 173.407" fill="#3B8BE2"/>
    </g>
    <path fill-rule="evenodd" clip-rule="evenodd" d="M272.508 183.29H127.991C123.917 183.29 120.615 186.592 120.615 190.666V256.813C120.615 260.886 123.917 264.189 127.991 264.189H222.463C226.27 268.996 230.614 274.472 233.771 278.45C235.23 280.288 238.171 279.233 238.171 276.886V264.189H272.508C276.581 264.189 279.884 260.886 279.884 256.813V190.666C279.884 186.593 276.581 183.29 272.508 183.29Z" stroke="#190000" stroke-width="1.1" stroke-linecap="round" stroke-linejoin="round"/>
    <circle cx="152.772" cy="221.527" r="7.36744" fill="white" stroke="#190000" stroke-width="1.1" stroke-linecap="round" stroke-linejoin="round"/>
    <circle cx="183.571" cy="221.527" r="7.36744" fill="white" stroke="#190000" stroke-width="1.1" stroke-linecap="round" stroke-linejoin="round"/>
    <circle cx="214.37" cy="221.527" r="7.36744" fill="white" stroke="#190000" stroke-width="1.1" stroke-linecap="round" stroke-linejoin="round"/>
    <circle cx="245.168" cy="221.527" r="7.36744" fill="white" stroke="#190000" stroke-width="1.1" stroke-linecap="round" stroke-linejoin="round"/>
    <path d="M158.22 192.824L151.778 197.654" stroke="#2976DF" stroke-width="1.1" stroke-linecap="round" stroke-linejoin="round"/>
    <path d="M257.583 239.562C256.418 241.861 254.744 243.864 252.687 245.418" stroke="#2976DF" stroke-width="1.1" stroke-linecap="round" stroke-linejoin="round"/>
    <path d="M282.924 198.817C283.42 199.294 299.768 210.644 299.768 210.644L308.322 202.378L304.92 199.75L289.891 188.425L282.924 198.817Z" fill="#FACCC4"/>
    <mask id="mask6_602_180" style="mask-type:luminance" maskUnits="userSpaceOnUse" x="282" y="188" width="27" height="23">
    <path fill-rule="evenodd" clip-rule="evenodd" d="M282.924 198.817C283.42 199.294 299.768 210.644 299.768 210.644L308.322 202.378L304.92 199.75L289.891 188.425L282.924 198.817Z" fill="white"/>
    </mask>
    <g mask="url(#mask6_602_180)">
    <path d="M285.555 209.221C295.188 204.921 295.623 190.985 295.623 190.985L282.924 196.662" fill="#ED707B"/>
    </g>
    <path fill-rule="evenodd" clip-rule="evenodd" d="M282.924 198.817C283.42 199.294 299.768 210.644 299.768 210.644L308.322 202.378L304.92 199.75L289.891 188.425L282.924 198.817Z" stroke="#190000" stroke-width="1.1" stroke-linecap="round" stroke-linejoin="round"/>
    <path d="M328.8 185.262C321.554 181.529 309.914 200.008 304.051 198.87C304.051 198.87 298.494 207.294 294.854 207.45L299.262 211.928C301.412 214.113 304.913 213.9 306.949 211.459L328.8 185.262Z" fill="#4B4D5C" stroke="#190000" stroke-width="1.1" stroke-linecap="round" stroke-linejoin="round"/>
    <path d="M280.303 209.221C281.159 209.452 298.529 196.904 295.896 189.828L247.087 152.948C245.212 151.523 243.036 150.543 240.726 150.084L170.454 125.636L162.56 146.662C161.299 150.56 161.506 154.891 163.335 158.517C166.283 164.362 171.969 168.327 178.494 168.463L231.714 173.654L280.303 209.221Z" fill="#FBD164"/>
    <mask id="mask7_602_180" style="mask-type:luminance" maskUnits="userSpaceOnUse" x="161" y="125" width="136" height="85">
    <path fill-rule="evenodd" clip-rule="evenodd" d="M280.303 209.221C281.159 209.452 298.529 196.904 295.896 189.828L247.087 152.948C245.212 151.523 243.036 150.543 240.726 150.084L170.454 125.636L162.56 146.662C161.299 150.56 161.506 154.891 163.335 158.517C166.283 164.362 171.969 168.327 178.494 168.463L231.714 173.654L280.303 209.221Z" fill="white"/>
    </mask>
    <g mask="url(#mask7_602_180)">
    <path d="M202.551 143.113C170.322 141.977 158.956 145.949 173.188 169.952C187.42 193.955 159.062 167.258 159.062 167.258L161.643 116.478L183.59 135.277" fill="#F9B564"/>
    <path d="M266.964 207.577C282.924 198.817 290.908 186.492 291.681 178.67" stroke="#F9B564" stroke-width="1.1" stroke-linecap="round" stroke-linejoin="round"/>
    <path d="M172.554 136.079C165.216 164.009 180.712 167.43 231.047 163.614L279.354 198.802" stroke="#F9B564" stroke-width="1.1" stroke-linecap="round" stroke-linejoin="round"/>
    <path d="M173.213 151.304C185.668 152.697 183.448 142.258 183.448 142.258" stroke="#F9B564" stroke-width="1.1" stroke-linecap="round" stroke-linejoin="round"/>
    <ellipse cx="252.136" cy="148.043" rx="14.79" ry="8.6453" fill="#D3575E" stroke="#190000" stroke-width="1.1" stroke-linecap="round" stroke-linejoin="round"/>
    </g>
    <path fill-rule="evenodd" clip-rule="evenodd" d="M280.303 209.221C281.159 209.452 298.529 196.904 295.896 189.828L247.087 152.948C245.212 151.523 243.036 150.543 240.726 150.084L170.454 125.636L162.56 146.662C161.299 150.56 161.506 154.891 163.335 158.517C166.283 164.362 171.969 168.327 178.494 168.463L231.714 173.654L280.303 209.221Z" stroke="#190000" stroke-width="1.1" stroke-linecap="round" stroke-linejoin="round"/>
    <path d="M226.691 118.267C226.691 118.267 214.555 94.4597 202.51 91.1584C202.51 91.1584 188.723 105.659 164.374 130.169C182.282 146.168 202.921 141.678 202.921 141.678C202.921 141.678 213.246 133.605 220.287 126.685" fill="#516DDB"/>
    <mask id="mask8_602_180" style="mask-type:luminance" maskUnits="userSpaceOnUse" x="164" y="91" width="63" height="52">
    <path fill-rule="evenodd" clip-rule="evenodd" d="M226.691 118.267C226.691 118.267 214.555 94.4597 202.51 91.1584C202.51 91.1584 188.723 105.659 164.374 130.169C182.282 146.168 202.921 141.678 202.921 141.678C202.921 141.678 213.246 133.605 220.287 126.685" fill="white"/>
    </mask>
    <g mask="url(#mask8_602_180)">
    <ellipse cx="214.04" cy="102.33" rx="11.8072" ry="7.12883" transform="rotate(-82.5312 214.04 102.33)" fill="white" stroke="#190000" stroke-width="1.1" stroke-linecap="round" stroke-linejoin="round"/>
    <ellipse cx="215.394" cy="100.638" rx="11.8072" ry="6.76996" transform="rotate(-82.5312 215.394 100.638)" fill="#FACCC4" stroke="#190000" stroke-width="1.1" stroke-linecap="round" stroke-linejoin="round"/>
    <path d="M196.819 113.804C181.47 113.558 153.384 141.853 201.676 141.887C249.968 141.921 202.921 141.678 202.921 141.678L179.929 148.044L155.4 130.969L171.55 111.303L182.238 109.027L196.819 113.804Z" fill="#3152BA"/>
    <path d="M202.154 108.376L193.071 121.324L215.446 125.995L202.154 108.376Z" fill="white"/>
    <mask id="mask9_602_180" style="mask-type:luminance" maskUnits="userSpaceOnUse" x="193" y="108" width="23" height="18">
    <path fill-rule="evenodd" clip-rule="evenodd" d="M202.154 108.376L193.071 121.324L215.446 125.995L202.154 108.376Z" fill="white"/>
    </mask>
    <g mask="url(#mask9_602_180)">
    <rect x="203.105" y="102.203" width="5.7465" height="26.1394" transform="rotate(35.0509 203.105 102.203)" fill="#9879C9" stroke="#190000" stroke-width="1.1" stroke-linecap="round" stroke-linejoin="round"/>
    </g>
    <path fill-rule="evenodd" clip-rule="evenodd" d="M202.154 108.376L193.071 121.324L215.446 125.995L202.154 108.376V108.376Z" stroke="#190000" stroke-width="1.1" stroke-linecap="round" stroke-linejoin="round"/>
    </g>
    <path d="M226.691 118.267C226.691 118.267 214.555 94.4597 202.51 91.1584C202.51 91.1584 188.723 105.659 164.374 130.169C182.282 146.168 202.921 141.678 202.921 141.678C202.921 141.678 213.246 133.605 220.287 126.685" stroke="#190000" stroke-width="1.1" stroke-linecap="round" stroke-linejoin="round"/>
    <path d="M196.716 91.1103L159.591 90.2213C155.538 90.1242 151.939 92.6854 150.873 96.4259L141.5 129.308C141.5 129.308 134.047 138.856 138.296 140.449C138.296 140.449 138.981 144.475 143.485 142.321C143.485 142.321 146.911 146.253 149.555 141.479C149.555 141.479 153.102 140.122 152.708 135.848C152.587 134.539 152.07 133.292 151.29 132.21L161.08 106.652L187.122 109.46L196.716 91.1103Z" fill="#FACCC4"/>
    <mask id="mask10_602_180" style="mask-type:luminance" maskUnits="userSpaceOnUse" x="136" y="90" width="61" height="54">
    <path fill-rule="evenodd" clip-rule="evenodd" d="M196.716 91.1103L159.591 90.2213C155.538 90.1242 151.939 92.6854 150.873 96.4259L141.5 129.308C141.5 129.308 134.047 138.856 138.296 140.449C138.296 140.449 138.981 144.475 143.485 142.321C143.485 142.321 146.911 146.253 149.555 141.479C149.555 141.479 153.102 140.122 152.708 135.848C152.587 134.539 152.07 133.292 151.29 132.21L161.08 106.652L187.122 109.46L196.716 91.1103Z" fill="white"/>
    </mask>
    <g mask="url(#mask10_602_180)">
    <path d="M171.066 90.2741C166.512 88.9081 167.304 103.268 163.446 106.907C159.588 110.545 170.484 113.07 170.484 113.07L173.391 100.394" fill="#ED707B"/>
    </g>
    <path fill-rule="evenodd" clip-rule="evenodd" d="M196.716 91.1103L159.591 90.2213C155.538 90.1242 151.939 92.6854 150.873 96.4259L141.5 129.308C141.5 129.308 134.047 138.856 138.296 140.449C138.296 140.449 138.981 144.475 143.485 142.321C143.485 142.321 146.911 146.253 149.555 141.479C149.555 141.479 153.102 140.122 152.708 135.848C152.587 134.539 152.07 133.292 151.29 132.21V132.21L161.08 106.652L187.122 109.46L196.716 91.1103Z" stroke="#190000" stroke-width="1.1" stroke-linecap="round" stroke-linejoin="round"/>
    <path d="M202.858 91.2596L169.27 90.2186C169.27 90.2186 163.422 107.522 171.071 111.409L196.716 113.576" fill="#516DDB"/>
    <mask id="mask11_602_180" style="mask-type:luminance" maskUnits="userSpaceOnUse" x="167" y="90" width="36" height="24">
    <path fill-rule="evenodd" clip-rule="evenodd" d="M202.858 91.2596L169.27 90.2186C169.27 90.2186 163.422 107.522 171.071 111.409L196.716 113.576" fill="white"/>
    </mask>
    <g mask="url(#mask11_602_180)">
    <path d="M175.82 88.3304C167.995 95.0485 170.679 111.927 176.21 111.843C181.742 111.76 166.852 115.364 166.852 115.364L163.848 92.1924L173.117 86.6694" fill="#399FE8"/>
    <path d="M175.82 88.3304C167.995 95.0485 170.679 111.927 176.21 111.843C181.742 111.76 166.852 115.364 166.852 115.364L163.848 92.1924L173.117 86.6694" stroke="#190000" stroke-width="1.1" stroke-linecap="round" stroke-linejoin="round"/>
    </g>
    <path d="M202.858 91.2596L169.27 90.2186C169.27 90.2186 163.422 107.522 171.071 111.409L196.716 113.576" stroke="#190000" stroke-width="1.1" stroke-linecap="round" stroke-linejoin="round"/>
    <path d="M218.695 108.017L228.986 94.9765L217.548 89.6885L210.96 97.167" fill="#FACCC4"/>
    <mask id="mask12_602_180" style="mask-type:luminance" maskUnits="userSpaceOnUse" x="210" y="89" width="19" height="20">
    <path fill-rule="evenodd" clip-rule="evenodd" d="M218.695 108.017L228.986 94.9765L217.548 89.6885L210.96 97.167" fill="white"/>
    </mask>
    <g mask="url(#mask12_602_180)">
    <path d="M218.572 92.8157C221.115 97.6196 222.813 102.091 221.644 105.038C220.475 107.984 227.067 103.676 227.067 103.676L229.221 97.9705L218.572 92.8157" fill="#ED707B"/>
    </g>
    <path d="M218.695 108.017L228.986 94.9765L217.548 89.6885L210.96 97.167" stroke="#190000" stroke-width="1.1" stroke-linecap="round" stroke-linejoin="round"/>
    <path d="M220.608 97.0997C224.064 98.069 230.809 98.7893 232.185 96.8464C235.3 92.4471 233.076 79.9921 228.888 77.3824C229.929 85.6608 222.061 88.5404 217.9 89.4771L218.045 92.5512" fill="#FACCC4"/>
    <path d="M220.608 97.0997C224.064 98.069 230.809 98.7893 232.185 96.8464C235.3 92.4471 233.076 79.9921 228.888 77.3824C229.929 85.6608 222.061 88.5404 217.9 89.4771L218.045 92.5512" stroke="#190000" stroke-width="1.1" stroke-linecap="round" stroke-linejoin="round"/>
    <path d="M221.144 89.0372C215.272 82.6336 211.032 91.0676 218.779 92.7076L221.144 89.0372Z" fill="#FACCC4"/>
    <path d="M221.144 89.0372C215.272 82.6336 211.032 91.0676 218.779 92.7076" stroke="#190000" stroke-width="1.1" stroke-linecap="round" stroke-linejoin="round"/>
    <path d="M229.824 84.5248C230.307 84.4423 230.765 84.7672 230.848 85.2505L231.1 86.7284C231.183 87.2117 230.858 87.6703 230.375 87.7529C229.891 87.8354 229.433 87.5105 229.35 87.0273L229.098 85.5494C229.015 85.0661 229.34 84.6074 229.824 84.5248L229.824 84.5248Z" fill="#190000"/>
    <path d="M230.102 81.4645C227.439 81.7987 227.038 82.9949 228.716 82.8946C230.395 82.7943 231.842 81.2462 230.102 81.4645Z" fill="#190000"/>
    <path d="M232.474 85.8204C236.047 87.3345 235.435 90.9294 233.063 90.5052L232.474 85.8204Z" fill="#FACCC4"/>
    <path d="M232.474 85.8204C236.047 87.3345 235.435 90.9294 233.063 90.5052" stroke="#190000" stroke-width="1.1" stroke-linecap="round" stroke-linejoin="round"/>
    <ellipse opacity="0.31" cx="226.5" cy="88.7876" rx="2.02153" ry="1.4907" fill="#ED707B"/>
    <path d="M228.218 90.854C229.382 92.3548 230.906 91.8376 230.906 91.8376" stroke="#993443" stroke-width="1.1" stroke-linecap="round" stroke-linejoin="round"/>
    <path d="M218.685 89.1906C218.43 88.7556 217.754 88.6499 217.379 88.9864C217.004 89.3229 217.035 90.0064 217.439 90.3071" stroke="#190000" stroke-width="1.1" stroke-linecap="round" stroke-linejoin="round"/>
    <path d="M219.41 75.9645C219.951 76.969 219.644 78.3482 218.729 79.029" stroke="#190000" stroke-width="1.1" stroke-linecap="round" stroke-linejoin="round"/>
    <path d="M183.449 127.094C183.749 128.973 184.718 130.68 186.177 131.901" stroke="#11314B" stroke-width="1.1" stroke-linecap="round" stroke-linejoin="round"/>
    <path d="M227.809 130.936L227.045 133.77" stroke="#11314B" stroke-width="1.1" stroke-linecap="round" stroke-linejoin="round"/>
    <path d="M231.712 173.17C231.96 171.881 232.208 170.592 232.455 169.302" stroke="#F9B564" stroke-width="1.1" stroke-linecap="round" stroke-linejoin="round"/>
    <path d="M140.338 181.9C140.589 182.503 140.839 183.107 141.09 183.71" stroke="#F9B564" stroke-width="1.1" stroke-linecap="round" stroke-linejoin="round"/>
    <path d="M198.049 153.965C195.587 155.926 192.75 157.365 189.713 158.193" stroke="#F9B564" stroke-width="1.1" stroke-linecap="round" stroke-linejoin="round"/>
    <path d="M91.2453 183.592C91.5379 181.019 90.5783 178.461 88.6653 176.716C87.16 182.182 85.8515 187.697 84.7397 193.261" stroke="#190000" stroke-width="1.1" stroke-linecap="round" stroke-linejoin="round"/>
    <path d="M305.088 193.821C305.423 195.593 305.758 197.365 306.093 199.136C308.556 196.36 310.808 193.404 312.829 190.292" stroke="#190000" stroke-width="1.1" stroke-linecap="round" stroke-linejoin="round"/>
    <path d="M161.213 106.908L160.183 105.363" stroke="#E84B23" stroke-width="1.1" stroke-linecap="round" stroke-linejoin="round"/>
    <path d="M243.86 143.983C243.688 144.155 243.516 144.327 243.345 144.498" stroke="#E84B23" stroke-width="1.1" stroke-linecap="round" stroke-linejoin="round"/>
    <path d="M198.769 94.4052C200.119 97.0358 200.384 100.092 199.504 102.915" stroke="#11314B" stroke-width="1.1" stroke-linecap="round" stroke-linejoin="round"/>
    <path d="M277.869 104.922L261.001 59.8134L261.448 59.651L278.316 104.759L277.869 104.922Z" fill="#FFCCCC" stroke="#190000" stroke-width="1.1" stroke-linecap="round" stroke-linejoin="round"/>
    <path d="M294.564 104.922L294.117 104.759L310.986 59.651L311.432 59.8134L294.564 104.922Z" fill="#FFCCCC" stroke="#190000" stroke-width="1.1" stroke-linecap="round" stroke-linejoin="round"/>
    <path d="M281.005 104.892L270.667 59.7841L271.132 59.6804L281.47 104.789L281.005 104.892Z" fill="#FFCCCC" stroke="#190000" stroke-width="1.1" stroke-linecap="round" stroke-linejoin="round"/>
    <path d="M291.428 104.892L290.963 104.789L301.301 59.6804L301.766 59.7841L291.428 104.892Z" fill="#FFCCCC" stroke="#190000" stroke-width="1.1" stroke-linecap="round" stroke-linejoin="round"/>
    <path d="M301.876 20.6147C295.675 20.6409 289.792 23.3695 285.767 28.0873C281.741 23.3694 275.859 20.6409 269.657 20.6147C258.548 20.6147 249.969 29.1629 249.969 40.2319C249.969 53.7739 262.132 64.6346 280.561 81.4039L285.767 86.0286L290.973 81.4039C309.402 64.6346 321.564 53.7739 321.564 40.2319C321.564 29.1629 312.985 20.6147 301.876 20.6147L301.876 20.6147Z" fill="#FFCCCC"/>
    <mask id="mask13_602_180" style="mask-type:luminance" maskUnits="userSpaceOnUse" x="249" y="20" width="73" height="67">
    <path fill-rule="evenodd" clip-rule="evenodd" d="M301.876 20.6147C295.675 20.6409 289.792 23.3695 285.767 28.0873C281.741 23.3694 275.859 20.6409 269.657 20.6147C258.548 20.6147 249.969 29.1629 249.969 40.2319C249.969 53.7739 262.132 64.6346 280.561 81.4039L285.767 86.0286L290.973 81.4039C309.402 64.6346 321.564 53.7739 321.564 40.2319C321.564 29.1629 312.985 20.6147 301.876 20.6147L301.876 20.6147Z" fill="white"/>
    </mask>
    <g mask="url(#mask13_602_180)">
    <path d="M283.265 19.0464L285.767 29.0521V89.5868C285.767 89.5868 240.24 51.0647 242.242 35.0555C244.243 19.0464 270.758 13.5432 270.758 13.5432" fill="#FF999A"/>
    </g>
    <path fill-rule="evenodd" clip-rule="evenodd" d="M301.876 20.6147C295.675 20.6409 289.792 23.3695 285.767 28.0873C281.741 23.3694 275.859 20.6409 269.657 20.6147C258.548 20.6147 249.969 29.1629 249.969 40.2319C249.969 53.7739 262.132 64.6346 280.561 81.4039L285.767 86.0286L290.973 81.4039C309.402 64.6346 321.564 53.7739 321.564 40.2319C321.564 29.1629 312.985 20.6147 301.876 20.6147L301.876 20.6147Z" stroke="#190000" stroke-width="1.1" stroke-linecap="round" stroke-linejoin="round"/>
    <path d="M295.341 20.6147C291.668 20.6311 288.178 23.3547 285.767 28.0873C283.355 23.3547 279.865 20.6311 276.192 20.6147C269.59 20.6147 264.49 29.1629 264.49 40.2319C264.49 53.7739 271.719 64.6346 282.672 81.4039L285.767 86.0286L288.861 81.4039C299.814 64.6346 307.043 53.7739 307.043 40.2319C307.043 29.1629 301.944 20.6147 295.341 20.6147V20.6147Z" fill="#FF999A"/>
    <mask id="mask14_602_180" style="mask-type:luminance" maskUnits="userSpaceOnUse" x="264" y="20" width="44" height="67">
    <path fill-rule="evenodd" clip-rule="evenodd" d="M295.341 20.6147C291.668 20.6311 288.178 23.3547 285.767 28.0873C283.355 23.3547 279.865 20.6311 276.192 20.6147C269.59 20.6147 264.49 29.1629 264.49 40.2319C264.49 53.7739 271.719 64.6346 282.672 81.4039L285.767 86.0286L288.861 81.4039C299.814 64.6346 307.043 53.7739 307.043 40.2319C307.043 29.1629 301.944 20.6147 295.341 20.6147V20.6147Z" fill="white"/>
    </mask>
    <g mask="url(#mask14_602_180)">
    <rect x="249.969" y="13.7133" width="35.7979" height="93.8891" fill="#FFCCCC"/>
    </g>
    <path fill-rule="evenodd" clip-rule="evenodd" d="M295.341 20.6147C291.668 20.6311 288.178 23.3547 285.767 28.0873C283.355 23.3547 279.865 20.6311 276.192 20.6147C269.59 20.6147 264.49 29.1629 264.49 40.2319C264.49 53.7739 271.719 64.6346 282.672 81.4039L285.767 86.0286L288.861 81.4039C299.814 64.6346 307.043 53.7739 307.043 40.2319C307.043 29.1629 301.944 20.6147 295.341 20.6147V20.6147Z" stroke="#190000" stroke-width="1.1" stroke-linecap="round" stroke-linejoin="round"/>
    <path d="M286.444 117.535H285.089C282.904 117.535 280.808 116.667 279.263 115.122C277.718 113.577 276.85 111.482 276.85 109.297V103.65H294.683V109.297C294.683 111.482 293.815 113.577 292.27 115.122C290.725 116.667 288.629 117.535 286.444 117.535Z" fill="#399FE8"/>
    <mask id="mask15_602_180" style="mask-type:luminance" maskUnits="userSpaceOnUse" x="276" y="103" width="19" height="15">
    <path fill-rule="evenodd" clip-rule="evenodd" d="M286.444 117.535H285.089C282.904 117.535 280.808 116.667 279.263 115.122C277.718 113.577 276.85 111.482 276.85 109.297V103.65H294.683V109.297C294.683 111.482 293.815 113.577 292.27 115.122C290.725 116.667 288.629 117.535 286.444 117.535Z" fill="white"/>
    </mask>
    <g mask="url(#mask15_602_180)">
    <path d="M274.634 105.428C305.699 106.461 290.11 117.824 286.635 119.232C283.161 120.641 306.638 114.631 306.638 114.631L302.775 99.6996C302.775 99.6996 284.476 99.8874 283.161 99.8874" fill="#3B8BE2"/>
    </g>
    <path fill-rule="evenodd" clip-rule="evenodd" d="M286.444 117.535H285.089C282.904 117.535 280.808 116.667 279.263 115.122C277.718 113.577 276.85 111.482 276.85 109.297V103.65H294.683V109.297C294.683 111.482 293.815 113.577 292.27 115.122C290.725 116.667 288.629 117.535 286.444 117.535Z" stroke="#190000" stroke-width="1.1" stroke-linecap="round" stroke-linejoin="round"/>
    <path d="M276.181 100.477H295.352C296.207 100.477 296.9 101.169 296.9 102.024V103.245C296.9 104.126 296.185 104.84 295.304 104.84H276.229C275.806 104.84 275.4 104.672 275.101 104.373C274.802 104.074 274.634 103.668 274.634 103.245V102.024C274.634 101.613 274.797 101.22 275.087 100.93C275.377 100.64 275.77 100.477 276.181 100.477V100.477Z" fill="#399FE8" stroke="#190000" stroke-width="1.1" stroke-linecap="round" stroke-linejoin="round"/>
    <path d="M276.665 32.448L276.064 34.9743" stroke="#FF999A" stroke-width="1.1" stroke-linecap="round" stroke-linejoin="round"/>
    <path d="M290.349 109.564L284.748 113.277" stroke="#2976DF" stroke-width="1.1" stroke-linecap="round" stroke-linejoin="round"/>
    <path d="M196.689 27.1874H106.867C104.335 27.1875 102.283 29.24 102.283 31.7719V72.8838C102.283 75.4157 104.335 77.4682 106.867 77.4683H165.584C167.951 80.456 170.65 83.8596 172.613 86.3319C173.519 87.4745 175.347 86.8186 175.347 85.36V77.4683H196.688C199.22 77.4682 201.273 75.4157 201.273 72.8838V31.7719C201.273 29.2401 199.22 27.1875 196.689 27.1874Z" fill="#FFCCCC"/>
    <mask id="mask16_602_180" style="mask-type:luminance" maskUnits="userSpaceOnUse" x="102" y="27" width="100" height="60">
    <path fill-rule="evenodd" clip-rule="evenodd" d="M196.689 27.1874H106.867C104.335 27.1875 102.283 29.24 102.283 31.7719V72.8838C102.283 75.4157 104.335 77.4682 106.867 77.4683H165.584C167.951 80.456 170.65 83.8596 172.613 86.3319C173.519 87.4745 175.347 86.8186 175.347 85.36V77.4683H196.688C199.22 77.4682 201.273 75.4157 201.273 72.8838V31.7719C201.273 29.2401 199.22 27.1875 196.689 27.1874Z" fill="white"/>
    </mask>
    <g mask="url(#mask16_602_180)">
    <path d="M198.995 16.2395C199.53 37.3656 201.273 72.8838 196.115 73.7685C189.846 74.8436 93.4261 74.333 93.4261 74.333L153.275 106.658L204.482 103.777L207.683 32.0868" fill="#FF999A"/>
    </g>
    <path fill-rule="evenodd" clip-rule="evenodd" d="M196.689 27.1874H106.867C104.335 27.1875 102.283 29.24 102.283 31.7719V72.8838C102.283 75.4157 104.335 77.4682 106.867 77.4683H165.584C167.951 80.456 170.65 83.8596 172.613 86.3319C173.519 87.4745 175.347 86.8187 175.347 85.36V77.4683H196.688C199.22 77.4682 201.273 75.4157 201.273 72.8838V31.7719C201.273 29.2401 199.22 27.1875 196.689 27.1874Z" stroke="#190000" stroke-width="1.1" stroke-linecap="round" stroke-linejoin="round"/>
    <circle cx="122.27" cy="50.953" r="4.57907" fill="white" stroke="#190000" stroke-width="1.1" stroke-linecap="round" stroke-linejoin="round"/>
    <circle cx="141.412" cy="50.953" r="4.57907" fill="white" stroke="#190000" stroke-width="1.1" stroke-linecap="round" stroke-linejoin="round"/>
    <circle cx="160.554" cy="50.953" r="4.57907" fill="white" stroke="#190000" stroke-width="1.1" stroke-linecap="round" stroke-linejoin="round"/>
    <circle cx="179.696" cy="50.953" r="4.57907" fill="white" stroke="#190000" stroke-width="1.1" stroke-linecap="round" stroke-linejoin="round"/>
    <path d="M126.583 33.4832L121.873 36.7639" stroke="#FF999A" stroke-width="1.1" stroke-linecap="round" stroke-linejoin="round"/>
    <path d="M184.95 64.1504C183.366 65.6358 181.566 66.8731 179.612 67.8204" stroke="#FF999A" stroke-width="1.1" stroke-linecap="round" stroke-linejoin="round"/>
    </g>
    </svg>
    